# File units = meters
mtllib Triangle Revised.mtl
g Part 1
v -2.83863e-16 -0.0709107 0.891025 
v -0.5 -0.0709107 0.025 
v 0.5 -0.0709107 0.025 
v 0.5 -0.0459107 0.025 
v -2.77271e-16 -0.0459107 0.891025 
v -0.5 -0.0459107 0.025 
vn -2.63678e-16 -1 6.12323e-17 
vn 0.866025 -1.97736e-16 0.5 
vn -0.866025 2.58968e-16 0.5 
vn 2.63678e-16 -6.12323e-17 -1 
vn 2.63678e-16 1 -6.12323e-17 
usemtl 0.615686_0.811765_0.929412_0.000000_0.000000
o mesh0
f 1//1 2//1 3//1 
o mesh1
f 4//2 5//2 1//2 
f 1//2 3//2 4//2 
o mesh2
f 5//3 6//3 2//3 
f 2//3 1//3 5//3 
o mesh3
f 2//4 6//4 4//4 
f 4//4 3//4 2//4 
o mesh4
f 4//5 6//5 5//5 
